# Blender v2.76 (sub 0) OBJ File: ''
# www.blender.org
mtllib moonpear.mtl
o moonpear
v 0.234248 0.960249 -1.800438
v -1.244751 0.960249 -1.266416
v -1.776000 0.960249 0.000000
v -1.244751 0.960249 1.266416
v 0.234248 0.960249 1.800438
v 2.650141 0.960249 1.024587
v 3.624000 0.960249 0.000000
v 2.650141 0.960249 -1.024587
v 1.326981 0.699217 -2.175977
v 4.362129 0.699217 -0.643073
v 4.362129 0.699217 0.643073
v 1.326981 0.699217 2.175977
v -0.860359 0.699217 2.170479
v -2.156248 0.699217 0.900000
v -2.156248 0.699217 -0.900000
v -0.860359 0.699217 -2.170479
v 0.060000 0.120000 -3.000000
v 3.387296 0.120000 -2.207447
v 6.000000 0.120000 0.000000
v 3.387296 0.120000 2.207447
v 0.060000 0.120000 3.000000
v -2.103747 0.120000 2.121320
v -3.000000 0.120000 0.000000
v -2.103747 0.120000 -2.121320
v 1.770193 0.120000 -2.799128
v 1.347784 0.087367 -2.886784
v 0.920975 0.076477 -2.949610
v 0.491224 0.087367 -2.987392
v 2.996695 0.090327 -2.390595
v 2.596059 0.080425 -2.550609
v 2.186759 0.090327 -2.686942
v 4.823287 0.120000 -1.257162
v 4.485754 0.091454 -1.525834
v 4.133100 0.081927 -1.774326
v 3.766530 0.091454 -2.001789
v 5.733909 0.091066 -0.339571
v 5.448432 0.081410 -0.663015
v 5.144545 0.091066 -0.969228
v 4.823287 0.120000 1.257162
v 5.144545 0.091066 0.969228
v 5.448432 0.081410 0.663015
v 5.733909 0.091066 0.339571
v 3.766530 0.091454 2.001789
v 4.133100 0.081927 1.774326
v 4.485754 0.091454 1.525834
v 1.770193 0.120000 2.799128
v 2.186759 0.090327 2.686942
v 2.596059 0.080425 2.550609
v 2.996695 0.090327 2.390595
v 0.491224 0.087367 2.987392
v 0.920975 0.076477 2.949610
v 1.347784 0.087367 2.886784
v -1.111011 0.120000 2.771639
v -0.828271 0.080754 2.870821
v -0.536976 0.067630 2.942356
v -0.239932 0.080754 2.985554
v -1.881243 0.080681 2.319031
v -1.640045 0.067533 2.494409
v -1.382474 0.080681 2.645764
v -2.767071 0.120000 1.148050
v -2.638679 0.080642 1.414190
v -2.484297 0.067480 1.666711
v -2.305412 0.080642 1.903180
v -2.985265 0.080642 0.294051
v -2.941203 0.067480 0.585271
v -2.868237 0.080642 0.870854
v -2.767071 0.120000 -1.148050
v -2.868237 0.080642 -0.870854
v -2.941203 0.067480 -0.585271
v -2.985265 0.080642 -0.294051
v -2.305412 0.080642 -1.903180
v -2.484297 0.067480 -1.666711
v -2.638679 0.080642 -1.414190
v -1.111011 0.120000 -2.771639
v -1.382474 0.080681 -2.645764
v -1.640045 0.067533 -2.494409
v -1.881243 0.080681 -2.319031
v -0.239932 0.080754 -2.985554
v -0.536976 0.067630 -2.942356
v -0.828271 0.080754 -2.870821
v 0.491224 -0.042536 -2.987392
v 0.060000 -0.120000 -3.000000
v 0.920975 -0.016685 -2.949610
v 1.347784 -0.042536 -2.886784
v 1.770193 -0.120000 -2.799128
v 2.186759 -0.042536 -2.686942
v 2.596059 -0.016685 -2.550609
v 2.996695 -0.042536 -2.390595
v 3.387296 -0.120000 -2.207447
v 3.766530 -0.042536 -2.001789
v 4.133100 -0.016685 -1.774326
v 4.485754 -0.042536 -1.525834
v 4.823287 -0.120000 -1.257162
v 5.144545 -0.097163 -0.969228
v 5.448432 -0.089541 -0.663015
v 5.733909 -0.097163 -0.339571
v 6.000000 -0.120000 -0.000000
v 5.733909 -0.097163 0.339571
v 5.448432 -0.089541 0.663015
v 5.144545 -0.097163 0.969228
v 4.823287 -0.120000 1.257162
v 4.485754 -0.042536 1.525834
v 4.133100 -0.016685 1.774326
v 3.766530 -0.042536 2.001789
v 3.387296 -0.120000 2.207447
v 2.996695 -0.042536 2.390595
v 2.596059 -0.016685 2.550609
v 2.186759 -0.042536 2.686942
v 1.770193 -0.120000 2.799128
v 1.347784 -0.042536 2.886784
v 0.920975 -0.016685 2.949610
v 0.491224 -0.042536 2.987392
v 0.060000 -0.120000 3.000000
v -0.239932 -0.031365 2.985554
v -0.536976 -0.001725 2.942356
v -0.828271 -0.031365 2.870821
v -1.111011 -0.120000 2.771639
v -1.382474 -0.030895 2.645764
v -1.640045 -0.001097 2.494409
v -1.881243 -0.030895 2.319031
v -2.103747 -0.120000 2.121320
v -2.305412 -0.030217 1.903180
v -2.484297 -0.000193 1.666711
v -2.638679 -0.030217 1.414190
v -2.767071 -0.120000 1.148050
v -2.868237 -0.079617 0.870854
v -2.941203 -0.066113 0.585271
v -2.985265 -0.079617 0.294051
v -3.000000 -0.120000 -0.000000
v -2.985265 -0.079617 -0.294051
v -2.941203 -0.066113 -0.585271
v -2.868237 -0.079617 -0.870854
v -2.767071 -0.120000 -1.148050
v -2.638679 -0.030217 -1.414190
v -2.484297 -0.000193 -1.666711
v -2.305412 -0.030217 -1.903180
v -2.103747 -0.120000 -2.121320
v -1.881243 -0.030895 -2.319031
v -1.640045 -0.001097 -2.494409
v -1.382474 -0.030895 -2.645764
v -1.111011 -0.120000 -2.771639
v -0.828271 -0.031365 -2.870821
v -0.536976 -0.001725 -2.942356
v -0.239932 -0.031365 -2.985554
v 0.068984 -0.601125 -2.762671
v 1.722036 -0.543202 -2.596956
v 3.329300 -0.381963 -2.092615
v 3.329300 -0.381963 2.092615
v 1.722036 -0.543202 2.596956
v 0.068984 -0.601125 2.762671
v -1.030795 -0.548404 2.574399
v -2.011275 -0.385416 2.027142
v -2.011275 -0.385416 -2.027142
v -1.030795 -0.548404 -2.574399
v -0.003697 -2.232000 -0.793165
v 0.737326 -2.232000 -0.480503
v 1.214180 -2.232000 -0.000000
v 0.737326 -2.232000 0.480503
v -0.003697 -2.232000 0.793165
v -0.456109 -2.232000 0.459919
v -0.650424 -2.232000 -0.000000
v -0.456109 -2.232000 -0.459919
v 0.000000 -2.760000 -0.000000
vn 0.000000 1.000000 0.000000
vn 0.108000 0.935600 -0.336200
vn 0.186900 0.966200 -0.177700
vn 0.186900 0.966200 0.177700
vn 0.108000 0.935600 0.336200
vn -0.115800 0.940100 0.320700
vn -0.322700 0.936800 0.135400
vn -0.322700 0.936800 -0.135400
vn -0.115800 0.940100 -0.320700
vn -0.001400 0.819200 -0.573600
vn 0.233400 0.855500 -0.462200
vn 0.333400 0.942800 0.000000
vn 0.233400 0.855500 0.462200
vn -0.001400 0.819200 0.573600
vn -0.398900 0.821800 0.406900
vn -0.566000 0.824400 0.000000
vn -0.398900 0.821800 -0.406900
vn 0.076300 0.756800 -0.649200
vn 0.212200 0.786400 -0.580000
vn 0.212200 0.786400 -0.580100
vn 0.332700 0.797900 -0.502700
vn 0.443900 0.793900 -0.415500
vn 0.443900 0.793900 0.415500
vn 0.332700 0.797900 0.502700
vn 0.212200 0.786400 0.580100
vn 0.212200 0.786400 0.580000
vn 0.076300 0.756800 0.649200
vn -0.128700 0.740400 0.659700
vn -0.367600 0.741600 0.561200
vn -0.552400 0.743700 0.376500
vn -0.653200 0.745500 0.132500
vn -0.653200 0.745500 -0.132500
vn -0.552400 0.743700 -0.376500
vn -0.367600 0.741600 -0.561200
vn -0.128700 0.740400 -0.659700
vn 0.029200 0.000000 -0.999600
vn 0.087600 0.000000 -0.996200
vn 0.145600 0.000000 -0.989300
vn 0.203200 0.000000 -0.979100
vn 0.260000 0.000000 -0.965600
vn 0.316000 0.000000 -0.948800
vn 0.370900 0.000000 -0.928700
vn 0.424500 0.000000 -0.905400
vn 0.476700 0.000000 -0.879100
vn 0.527300 0.000000 -0.849700
vn 0.576000 0.000000 -0.817400
vn 0.622800 0.000000 -0.782400
vn 0.667400 0.000000 -0.744700
vn 0.709800 0.000000 -0.704400
vn 0.749700 0.000000 -0.661700
vn 0.787100 0.000000 -0.616800
vn 0.787100 -0.000000 0.616800
vn 0.749700 0.000000 0.661700
vn 0.709800 0.000000 0.704400
vn 0.667400 0.000000 0.744700
vn 0.622800 0.000000 0.782400
vn 0.576000 0.000000 0.817400
vn 0.527300 0.000000 0.849700
vn 0.476700 0.000000 0.879100
vn 0.424500 0.000000 0.905400
vn 0.370900 0.000000 0.928700
vn 0.316000 0.000000 0.948800
vn 0.260000 0.000000 0.965600
vn 0.203200 0.000000 0.979100
vn 0.145600 0.000000 0.989300
vn 0.087600 0.000000 0.996200
vn 0.029200 0.000000 0.999600
vn -0.048100 0.000000 0.998800
vn -0.143900 0.000000 0.989600
vn -0.238500 0.000000 0.971100
vn -0.331000 0.000000 0.943600
vn -0.420700 0.000000 0.907200
vn -0.506600 0.000000 0.862200
vn -0.588100 0.000000 0.808800
vn -0.664200 0.000000 0.747500
vn -0.734300 0.000000 0.678800
vn -0.797500 0.000000 0.603300
vn -0.853200 0.000000 0.521600
vn -0.900700 0.000000 0.434500
vn -0.939400 0.000000 0.342800
vn -0.968900 0.000000 0.247500
vn -0.988700 0.000000 0.149600
vn -0.998700 -0.000000 0.050000
vn -0.998700 0.000000 -0.050000
vn -0.988700 0.000000 -0.149600
vn -0.968900 0.000000 -0.247500
vn -0.939400 0.000000 -0.342800
vn -0.900700 0.000000 -0.434500
vn -0.853200 0.000000 -0.521600
vn -0.797500 0.000000 -0.603300
vn -0.734300 0.000000 -0.678800
vn -0.664200 0.000000 -0.747500
vn -0.588100 0.000000 -0.808800
vn -0.506600 0.000000 -0.862200
vn -0.420700 0.000000 -0.907200
vn -0.331000 0.000000 -0.943600
vn -0.238500 0.000000 -0.971100
vn -0.143900 0.000000 -0.989600
vn -0.048100 0.000000 -0.998800
vn 0.104800 -0.438400 -0.892700
vn 0.308800 -0.438400 -0.844100
vn 0.496000 -0.438400 -0.749500
vn 0.496000 -0.438400 0.749500
vn 0.308800 -0.438400 0.844100
vn 0.104800 -0.438400 0.892700
vn -0.172000 -0.438400 0.882200
vn -0.492500 -0.438400 0.751800
vn -0.742700 -0.438400 0.506200
vn -0.742700 -0.438400 -0.506200
vn -0.492500 -0.438400 -0.751800
vn -0.172000 -0.438400 -0.882200
vn 0.090400 -0.768700 -0.633200
vn 0.247900 -0.810200 -0.531100
vn 0.364600 -0.847300 -0.386200
vn 0.377700 -0.855800 -0.353500
vn 0.377700 -0.855800 0.353500
vn 0.364600 -0.847300 0.386200
vn 0.247900 -0.810200 0.531100
vn 0.090400 -0.768700 0.633200
vn -0.145000 -0.759400 0.634200
vn -0.405900 -0.765500 0.499200
vn -0.597800 -0.748000 0.288100
vn -0.662400 -0.737000 0.134400
vn -0.662400 -0.737000 -0.134400
vn -0.597800 -0.748000 -0.288100
vn -0.405900 -0.765500 -0.499200
vn -0.145000 -0.759400 -0.634200
vn 0.228000 -0.810000 -0.540300
vn 0.370800 -0.852700 -0.368000
vn 0.370800 -0.852700 0.368000
vn 0.228000 -0.810000 0.540300
vn -0.377100 -0.771800 0.512000
vn -0.609000 -0.750200 0.257300
vn -0.609000 -0.750200 -0.257300
vn -0.377100 -0.771800 -0.512000
usemtl None
s 1
f 1//1 2//1 3//1
f 1//1 3//1 4//1
f 1//1 4//1 5//1
f 1//1 5//1 6//1
f 1//1 6//1 7//1
f 1//1 7//1 8//1
f 1//2 8//2 9//2
f 8//3 7//3 10//3
f 7//4 6//4 11//4
f 6//5 5//5 12//5
f 5//6 4//6 13//6
f 4//7 3//7 14//7
f 3//8 2//8 15//8
f 2//9 1//9 16//9
f 1//10 9//10 17//10
f 1//10 17//10 16//10
f 8//11 10//11 18//11
f 8//11 18//11 9//11
f 7//12 11//12 19//12
f 7//12 19//12 10//12
f 6//13 12//13 20//13
f 6//13 20//13 11//13
f 5//14 13//14 21//14
f 5//14 21//14 12//14
f 4//15 14//15 22//15
f 4//15 22//15 13//15
f 3//16 15//16 23//16
f 3//16 23//16 14//16
f 2//17 16//17 24//17
f 2//17 24//17 15//17
f 9//18 25//18 26//18
f 9//18 26//18 27//18
f 9//18 27//18 28//18
f 9//18 28//18 17//18
f 9//19 18//20 29//20
f 9//19 29//20 30//19
f 9//19 30//19 31//20
f 9//19 31//20 25//19
f 10//21 32//21 33//21
f 10//21 33//21 34//21
f 10//21 34//21 35//21
f 10//21 35//21 18//21
f 10//22 19//22 36//22
f 10//22 36//22 37//22
f 10//22 37//22 38//22
f 10//22 38//22 32//22
f 11//23 39//23 40//23
f 11//23 40//23 41//23
f 11//23 41//23 42//23
f 11//23 42//23 19//23
f 11//24 20//24 43//24
f 11//24 43//24 44//24
f 11//24 44//24 45//24
f 11//24 45//24 39//24
f 12//25 46//26 47//25
f 12//25 47//25 48//26
f 12//25 48//26 49//25
f 12//25 49//25 20//25
f 12//27 21//27 50//27
f 12//27 50//27 51//27
f 12//27 51//27 52//27
f 12//27 52//27 46//27
f 13//28 53//28 54//28
f 13//28 54//28 55//28
f 13//28 55//28 56//28
f 13//28 56//28 21//28
f 13//29 22//29 57//29
f 13//29 57//29 58//29
f 13//29 58//29 59//29
f 13//29 59//29 53//29
f 14//30 60//30 61//30
f 14//30 61//30 62//30
f 14//30 62//30 63//30
f 14//30 63//30 22//30
f 14//31 23//31 64//31
f 14//31 64//31 65//31
f 14//31 65//31 66//31
f 14//31 66//31 60//31
f 15//32 67//32 68//32
f 15//32 68//32 69//32
f 15//32 69//32 70//32
f 15//32 70//32 23//32
f 15//33 24//33 71//33
f 15//33 71//33 72//33
f 15//33 72//33 73//33
f 15//33 73//33 67//33
f 16//34 74//34 75//34
f 16//34 75//34 76//34
f 16//34 76//34 77//34
f 16//34 77//34 24//34
f 16//35 17//35 78//35
f 16//35 78//35 79//35
f 16//35 79//35 80//35
f 16//35 80//35 74//35
f 17//36 28//36 81//36
f 17//36 81//36 82//36
f 28//37 27//37 83//37
f 28//37 83//37 81//37
f 27//38 26//38 84//38
f 27//38 84//38 83//38
f 26//39 25//39 85//39
f 26//39 85//39 84//39
f 25//40 31//40 86//40
f 25//40 86//40 85//40
f 31//41 30//41 87//41
f 31//41 87//41 86//41
f 30//42 29//42 88//42
f 30//42 88//42 87//42
f 29//43 18//43 89//43
f 29//43 89//43 88//43
f 18//44 35//44 90//44
f 18//44 90//44 89//44
f 35//45 34//45 91//45
f 35//45 91//45 90//45
f 34//46 33//46 92//46
f 34//46 92//46 91//46
f 33//47 32//47 93//47
f 33//47 93//47 92//47
f 32//48 38//48 94//48
f 32//48 94//48 93//48
f 38//49 37//49 95//49
f 38//49 95//49 94//49
f 37//50 36//50 96//50
f 37//50 96//50 95//50
f 36//51 19//51 97//51
f 36//51 97//51 96//51
f 19//52 42//52 98//52
f 19//52 98//52 97//52
f 42//53 41//53 99//53
f 42//53 99//53 98//53
f 41//54 40//54 100//54
f 41//54 100//54 99//54
f 40//55 39//55 101//55
f 40//55 101//55 100//55
f 39//56 45//56 102//56
f 39//56 102//56 101//56
f 45//57 44//57 103//57
f 45//57 103//57 102//57
f 44//58 43//58 104//58
f 44//58 104//58 103//58
f 43//59 20//59 105//59
f 43//59 105//59 104//59
f 20//60 49//60 106//60
f 20//60 106//60 105//60
f 49//61 48//61 107//61
f 49//61 107//61 106//61
f 48//62 47//62 108//62
f 48//62 108//62 107//62
f 47//63 46//63 109//63
f 47//63 109//63 108//63
f 46//64 52//64 110//64
f 46//64 110//64 109//64
f 52//65 51//65 111//65
f 52//65 111//65 110//65
f 51//66 50//66 112//66
f 51//66 112//66 111//66
f 50//67 21//67 113//67
f 50//67 113//67 112//67
f 21//68 56//68 114//68
f 21//68 114//68 113//68
f 56//69 55//69 115//69
f 56//69 115//69 114//69
f 55//70 54//70 116//70
f 55//70 116//70 115//70
f 54//71 53//71 117//71
f 54//71 117//71 116//71
f 53//72 59//72 118//72
f 53//72 118//72 117//72
f 59//73 58//73 119//73
f 59//73 119//73 118//73
f 58//74 57//74 120//74
f 58//74 120//74 119//74
f 57//75 22//75 121//75
f 57//75 121//75 120//75
f 22//76 63//76 122//76
f 22//76 122//76 121//76
f 63//77 62//77 123//77
f 63//77 123//77 122//77
f 62//78 61//78 124//78
f 62//78 124//78 123//78
f 61//79 60//79 125//79
f 61//79 125//79 124//79
f 60//80 66//80 126//80
f 60//80 126//80 125//80
f 66//81 65//81 127//81
f 66//81 127//81 126//81
f 65//82 64//82 128//82
f 65//82 128//82 127//82
f 64//83 23//83 129//83
f 64//83 129//83 128//83
f 23//84 70//84 130//84
f 23//84 130//84 129//84
f 70//85 69//85 131//85
f 70//85 131//85 130//85
f 69//86 68//86 132//86
f 69//86 132//86 131//86
f 68//87 67//87 133//87
f 68//87 133//87 132//87
f 67//88 73//88 134//88
f 67//88 134//88 133//88
f 73//89 72//89 135//89
f 73//89 135//89 134//89
f 72//90 71//90 136//90
f 72//90 136//90 135//90
f 71//91 24//91 137//91
f 71//91 137//91 136//91
f 24//92 77//92 138//92
f 24//92 138//92 137//92
f 77//93 76//93 139//93
f 77//93 139//93 138//93
f 76//94 75//94 140//94
f 76//94 140//94 139//94
f 75//95 74//95 141//95
f 75//95 141//95 140//95
f 74//96 80//96 142//96
f 74//96 142//96 141//96
f 80//97 79//97 143//97
f 80//97 143//97 142//97
f 79//98 78//98 144//98
f 79//98 144//98 143//98
f 78//99 17//99 82//99
f 78//99 82//99 144//99
f 145//100 82//100 81//100
f 145//100 81//100 83//100
f 145//100 83//100 84//100
f 145//100 84//100 85//100
f 145//100 85//100 146//100
f 146//101 85//101 86//101
f 146//101 86//101 87//101
f 146//101 87//101 88//101
f 146//101 88//101 89//101
f 146//101 89//101 147//101
f 147//102 89//102 90//102
f 147//102 90//102 91//102
f 147//102 91//102 92//102
f 147//102 92//102 93//102
f 148//103 101//103 102//103
f 148//103 102//103 103//103
f 148//103 103//103 104//103
f 148//103 104//103 105//103
f 149//104 148//104 105//104
f 149//104 105//104 106//104
f 149//104 106//104 107//104
f 149//104 107//104 108//104
f 149//104 108//104 109//104
f 150//105 149//105 109//105
f 150//105 109//105 110//105
f 150//105 110//105 111//105
f 150//105 111//105 112//105
f 150//105 112//105 113//105
f 151//106 150//106 113//106
f 151//106 113//106 114//106
f 151//106 114//106 115//106
f 151//106 115//106 116//106
f 151//106 116//106 117//106
f 152//107 151//107 117//107
f 152//107 117//107 118//107
f 152//107 118//107 119//107
f 152//107 119//107 120//107
f 152//107 120//107 121//107
f 125//108 152//108 121//108
f 125//108 121//108 122//108
f 125//108 122//108 123//108
f 125//108 123//108 124//108
f 133//109 134//109 135//109
f 133//109 135//109 136//109
f 133//109 136//109 137//109
f 133//109 137//109 153//109
f 153//110 137//110 138//110
f 153//110 138//110 139//110
f 153//110 139//110 140//110
f 153//110 140//110 141//110
f 153//110 141//110 154//110
f 154//111 141//111 142//111
f 154//111 142//111 143//111
f 154//111 143//111 144//111
f 154//111 144//111 82//111
f 154//111 82//111 145//111
f 155//112 145//112 146//112
f 156//113 146//113 147//113
f 156//114 147//114 93//114
f 157//115 93//115 94//115
f 157//115 94//115 95//115
f 157//115 95//115 96//115
f 157//115 96//115 97//115
f 157//116 97//116 98//116
f 157//116 98//116 99//116
f 157//116 99//116 100//116
f 157//116 100//116 101//116
f 158//117 101//117 148//117
f 158//118 148//118 149//118
f 159//119 149//119 150//119
f 159//120 150//120 151//120
f 160//121 151//121 152//121
f 160//122 152//122 125//122
f 161//123 125//123 126//123
f 161//123 126//123 127//123
f 161//123 127//123 128//123
f 161//123 128//123 129//123
f 161//124 129//124 130//124
f 161//124 130//124 131//124
f 161//124 131//124 132//124
f 161//124 132//124 133//124
f 162//125 133//125 153//125
f 162//126 153//126 154//126
f 155//127 154//127 145//127
f 163//128 155//128 146//128
f 163//128 146//128 156//128
f 163//129 156//129 93//129
f 163//129 93//129 157//129
f 163//130 157//130 101//130
f 163//130 101//130 158//130
f 163//131 158//131 149//131
f 163//131 149//131 159//131
f 163//132 159//132 151//132
f 163//132 151//132 160//132
f 163//133 160//133 125//133
f 163//133 125//133 161//133
f 163//134 161//134 133//134
f 163//134 133//134 162//134
f 163//135 162//135 154//135
f 163//135 154//135 155//135
