v 0.825039 1.833421 0.958578
v 1.552916 1.552916 0.958578
v 1.833421 0.825039 0.958578
v 1.833421 -0.825039 0.958578
v 1.552916 -1.552916 0.958578
v 0.825039 -1.833421 0.958578
v -0.825039 -1.833421 0.958578
v -1.552916 -1.552916 0.958578
v -1.833421 -0.825039 0.958578
v -1.833421 0.825039 0.958578
v -1.552916 1.552916 0.958578
v -0.825039 1.833421 0.958578
v 0.000000 2.553149 0.555611
v 1.961291 1.961291 0.728256
v 2.553149 0.000000 0.555611
v 1.961291 -1.961291 0.728256
v 0.000000 -2.553149 0.555611
v -1.961291 -1.961291 0.728256
v -2.553149 0.000000 0.555611
v -1.961291 1.961291 0.728256
v 0.000000 3.000000 0.152644
v 0.366230 2.991878 0.130598
v 0.731740 2.967527 0.123245
v 1.095811 2.926996 0.130598
v 1.457728 2.870364 0.152644
v 1.722371 2.818447 0.104362
v 1.983488 2.751092 0.070010
v 2.229927 2.632412 0.082988
v 2.454190 2.454190 0.152644
v 2.632412 2.229927 0.082988
v 2.751092 1.983488 0.070010
v 2.818447 1.722371 0.104362
v 2.870364 1.457728 0.152644
v 2.926996 1.095811 0.130598
v 2.967527 0.731740 0.123245
v 2.991878 0.366230 0.130598
v 3.000000 0.000000 0.152644
v 2.991878 -0.366230 0.130598
v 2.967527 -0.731740 0.123245
v 2.926996 -1.095811 0.130598
v 2.870364 -1.457728 0.152644
v 2.818447 -1.722371 0.104362
v 2.751092 -1.983488 0.070010
v 2.632412 -2.229927 0.082988
v 2.454190 -2.454190 0.152644
v 2.229927 -2.632412 0.082988
v 1.983488 -2.751092 0.070010
v 1.722371 -2.818447 0.104362
v 1.457728 -2.870364 0.152644
v 1.095811 -2.926996 0.130598
v 0.731740 -2.967527 0.123245
v 0.366230 -2.991878 0.130598
v 0.000000 -3.000000 0.152644
v -0.366230 -2.991878 0.130598
v -0.731740 -2.967527 0.123245
v -1.095811 -2.926996 0.130598
v -1.457728 -2.870364 0.152644
v -1.722371 -2.818447 0.104362
v -1.983488 -2.751092 0.070010
v -2.229927 -2.632412 0.082988
v -2.454190 -2.454190 0.152644
v -2.632412 -2.229927 0.082988
v -2.751092 -1.983488 0.070010
v -2.818447 -1.722371 0.104362
v -2.870364 -1.457728 0.152644
v -2.926996 -1.095811 0.130598
v -2.967527 -0.731740 0.123245
v -2.991878 -0.366230 0.130598
v -3.000000 0.000000 0.152644
v -2.991878 0.366230 0.130598
v -2.967527 0.731740 0.123245
v -2.926996 1.095811 0.130598
v -2.870364 1.457728 0.152644
v -2.818447 1.722371 0.104362
v -2.751092 1.983488 0.070010
v -2.632412 2.229927 0.082988
v -2.454190 2.454190 0.152644
v -2.229927 2.632412 0.082988
v -1.983488 2.751092 0.070010
v -1.722371 2.818447 0.104362
v -1.457728 2.870364 0.152644
v -1.095811 2.926996 0.130598
v -0.731740 2.967527 0.123245
v -0.366230 2.991878 0.130598
v 0.000000 3.000000 -0.152644
v 0.366230 2.991878 -0.115906
v 0.731740 2.967527 -0.103652
v 1.095811 2.926996 -0.115906
v 1.457728 2.870364 -0.152644
v 1.722371 2.818447 -0.071048
v 1.983488 2.751092 -0.012993
v 2.229927 2.632412 -0.034926
v 2.454190 2.454190 -0.152644
v 2.632412 2.229927 -0.034926
v 2.751092 1.983488 -0.012993
v 2.818447 1.722371 -0.071048
v 2.870364 1.457728 -0.152644
v 2.926996 1.095811 -0.115906
v 2.967527 0.731740 -0.103652
v 2.991878 0.366230 -0.115906
v 3.000000 0.000000 -0.152644
v 2.991878 -0.366230 -0.115906
v 2.967527 -0.731740 -0.103652
v 2.926996 -1.095811 -0.115906
v 2.870364 -1.457728 -0.152644
v 2.818447 -1.722371 -0.071048
v 2.751092 -1.983488 -0.012993
v 2.632412 -2.229927 -0.034926
v 2.454190 -2.454190 -0.152644
v 2.229927 -2.632412 -0.034926
v 1.983488 -2.751092 -0.012993
v 1.722371 -2.818447 -0.071048
v 1.457728 -2.870364 -0.152644
v 1.095811 -2.926996 -0.115906
v 0.731740 -2.967527 -0.103652
v 0.366230 -2.991878 -0.115906
v 0.000000 -3.000000 -0.152644
v -0.366230 -2.991878 -0.115906
v -0.731740 -2.967527 -0.103652
v -1.095811 -2.926996 -0.115906
v -1.457728 -2.870364 -0.152644
v -1.722371 -2.818447 -0.071048
v -1.983488 -2.751092 -0.012993
v -2.229927 -2.632412 -0.034926
v -2.454190 -2.454190 -0.152644
v -2.632412 -2.229927 -0.034926
v -2.751092 -1.983488 -0.012993
v -2.818447 -1.722371 -0.071048
v -2.870364 -1.457728 -0.152644
v -2.926996 -1.095811 -0.115906
v -2.967527 -0.731740 -0.103652
v -2.991878 -0.366230 -0.115906
v -3.000000 0.000000 -0.152644
v -2.991878 0.366230 -0.115906
v -2.967527 0.731740 -0.103652
v -2.926996 1.095811 -0.115906
v -2.870364 1.457728 -0.152644
v -2.818447 1.722371 -0.071048
v -2.751092 1.983488 -0.012993
v -2.632412 2.229927 -0.034926
v -2.454190 2.454190 -0.152644
v -2.229927 2.632412 -0.034926
v -1.983488 2.751092 -0.012993
v -1.722371 2.818447 -0.071048
v -1.457728 2.870364 -0.152644
v -1.095811 2.926996 -0.115906
v -0.731740 2.967527 -0.103652
v -0.366230 2.991878 -0.115906
v 0.000000 2.796849 -0.457932
v 1.408626 2.671579 -0.457932
v 2.392316 2.392316 -0.274759
v 2.671579 1.408626 -0.457932
v 2.796849 0.000000 -0.457932
v 2.671579 -1.408626 -0.457932
v 2.392316 -2.392316 -0.274759
v 1.408626 -2.671579 -0.457932
v 0.000000 -2.796849 -0.457932
v -1.408626 -2.671579 -0.457932
v -2.392316 -2.392316 -0.274759
v -2.671579 -1.408626 -0.457932
v -2.796849 0.000000 -0.457932
v -2.671579 1.408626 -0.457932
v -2.392316 2.392316 -0.274759
v -1.408626 2.671579 -0.457932
v 0.000000 0.814570 -2.357740
v 0.692469 0.692469 -2.357740
v 0.814570 0.000000 -2.357740
v 0.692469 -0.692469 -2.357740
v 0.000000 -0.814570 -2.357740
v -0.692469 -0.692469 -2.357740
v -0.814570 0.000000 -2.357740
v -0.692469 0.692469 -2.357740
v 0.000000 0.000000 -3.092772

vn 0.000000 -0.000000 1.000000
vn 0.143798 0.373140 0.916564
vn 0.373140 0.143798 0.916564
vn 0.373140 -0.143798 0.916564
vn 0.143798 -0.373140 0.916564
vn -0.143798 -0.373140 0.916564
vn -0.373140 -0.143798 0.916564
vn -0.373140 0.143798 0.916564
vn -0.143798 0.373140 0.916564
vn 0.000000 0.488528 0.872548
vn 0.488528 -0.000000 0.872548
vn -0.000000 -0.488528 0.872548
vn -0.488528 0.000000 0.872548
vn 0.100768 0.571486 0.814401
vn 0.571486 0.100768 0.814401
vn 0.571486 -0.100768 0.814401
vn 0.100768 -0.571486 0.814401
vn -0.100768 -0.571486 0.814401
vn -0.571486 -0.100768 0.814401
vn -0.571486 0.100768 0.814401
vn -0.100768 0.571486 0.814401
vn -0.059451 0.668515 0.741318
vn 0.059451 0.668515 0.741318
vn 0.256653 0.614517 0.745988
vn 0.614517 0.256653 0.745988
vn 0.668515 0.059451 0.741318
vn 0.668515 -0.059451 0.741318
vn 0.614517 -0.256653 0.745988
vn 0.256653 -0.614517 0.745988
vn 0.059451 -0.668515 0.741318
vn -0.059451 -0.668515 0.741318
vn -0.256653 -0.614517 0.745988
vn -0.614517 -0.256653 0.745988
vn -0.668515 -0.059451 0.741318
vn -0.668515 0.059451 0.741318
vn -0.614517 0.256653 0.745988
vn -0.256653 0.614517 0.745988
vn 0.022172 0.999754 -0.000000
vn 0.066474 0.997788 0.000000
vn 0.110644 0.993860 0.000000
vn 0.154597 0.987978 0.000000
vn 0.192509 0.981295 0.000000
vn 0.249771 0.968305 0.000000
vn 0.433888 0.900967 0.000000
vn 0.622161 0.782889 -0.000000
vn 0.782889 0.622161 0.000000
vn 0.900967 0.433888 0.000000
vn 0.968305 0.249771 0.000000
vn 0.981295 0.192509 0.000000
vn 0.987978 0.154597 0.000000
vn 0.993860 0.110644 -0.000000
vn 0.997788 0.066474 0.000000
vn 0.999754 0.022172 0.000000
vn 0.999754 -0.022172 0.000000
vn 0.997788 -0.066474 0.000000
vn 0.993860 -0.110644 0.000000
vn 0.987978 -0.154597 -0.000000
vn 0.981295 -0.192509 0.000000
vn 0.968305 -0.249771 -0.000000
vn 0.900967 -0.433888 0.000000
vn 0.782889 -0.622161 -0.000000
vn 0.622161 -0.782889 0.000000
vn 0.433888 -0.900967 0.000000
vn 0.249771 -0.968305 -0.000000
vn 0.192509 -0.981295 0.000000
vn 0.154597 -0.987978 0.000000
vn 0.110644 -0.993860 -0.000000
vn 0.066474 -0.997788 0.000000
vn 0.022172 -0.999754 0.000000
vn -0.022172 -0.999754 -0.000000
vn -0.066474 -0.997788 0.000000
vn -0.110644 -0.993860 0.000000
vn -0.154597 -0.987978 0.000000
vn -0.192509 -0.981295 0.000000
vn -0.249771 -0.968305 0.000000
vn -0.433888 -0.900967 0.000000
vn -0.622161 -0.782889 -0.000000
vn -0.782889 -0.622161 0.000000
vn -0.900967 -0.433888 0.000000
vn -0.968305 -0.249771 0.000000
vn -0.981295 -0.192509 0.000000
vn -0.987978 -0.154597 0.000000
vn -0.993860 -0.110644 -0.000000
vn -0.997788 -0.066474 0.000000
vn -0.999754 -0.022172 0.000000
vn -0.999754 0.022172 0.000000
vn -0.997788 0.066474 0.000000
vn -0.993860 0.110644 0.000000
vn -0.987978 0.154597 -0.000000
vn -0.981295 0.192509 0.000000
vn -0.968305 0.249771 -0.000000
vn -0.900967 0.433888 0.000000
vn -0.782889 0.622161 -0.000000
vn -0.622161 0.782889 0.000000
vn -0.433888 0.900967 0.000000
vn -0.249771 0.968305 -0.000000
vn -0.192509 0.981295 0.000000
vn -0.154597 0.987978 0.000000
vn -0.110644 0.993860 -0.000000
vn -0.066474 0.997788 0.000000
vn -0.022172 0.999754 0.000000
vn 0.073834 0.830249 -0.552481
vn 0.321231 0.769139 -0.552481
vn 0.769139 0.321231 -0.552481
vn 0.830249 0.073834 -0.552481
vn 0.830249 -0.073834 -0.552481
vn 0.769139 -0.321231 -0.552481
vn 0.321231 -0.769139 -0.552481
vn 0.073834 -0.830249 -0.552481
vn -0.073834 -0.830249 -0.552481
vn -0.321231 -0.769139 -0.552481
vn -0.769139 -0.321231 -0.552481
vn -0.830249 -0.073834 -0.552481
vn -0.830249 0.073834 -0.552481
vn -0.769139 0.321231 -0.552481
vn -0.321231 0.769139 -0.552481
vn -0.073834 0.830249 -0.552481
vn -0.061417 0.690623 -0.720603
vn 0.061417 0.690623 -0.720603
vn 0.307665 0.598623 -0.739589
vn 0.598623 0.307665 -0.739589
vn 0.690623 0.061417 -0.720603
vn 0.690623 -0.061417 -0.720603
vn 0.598623 -0.307665 -0.739589
vn 0.307665 -0.598623 -0.739589
vn 0.061417 -0.690623 -0.720603
vn -0.061417 -0.690623 -0.720603
vn -0.307665 -0.598623 -0.739589
vn -0.598623 -0.307665 -0.739589
vn -0.690623 -0.061417 -0.720603
vn -0.690623 0.061417 -0.720603
vn -0.598623 0.307665 -0.739589
vn -0.307665 0.598623 -0.739589
vn 0.117311 0.665305 -0.737298
vn 0.665305 0.117311 -0.737298
vn 0.665305 -0.117311 -0.737298
vn 0.117311 -0.665305 -0.737298
vn -0.117311 -0.665305 -0.737298
vn -0.665305 -0.117311 -0.737298
vn -0.665305 0.117311 -0.737298
vn -0.117311 0.665305 -0.737298



f 1//1 12//1 11//1
f 1//1 11//1 10//1
f 1//1 10//1 9//1
f 1//1 9//1 8//1
f 1//1 8//1 7//1
f 1//1 7//1 6//1
f 1//1 6//1 5//1
f 1//1 5//1 4//1
f 1//1 4//1 3//1
f 1//1 3//1 2//1
f 2//2 14//2 1//2
f 2//3 3//3 14//3
f 5//4 16//4 4//4
f 5//5 6//5 16//5
f 8//6 18//6 7//6
f 8//7 9//7 18//7
f 11//8 20//8 10//8
f 11//9 12//9 20//9
f 1//10 13//10 12//10
f 4//11 15//11 3//11
f 7//12 17//12 6//12
f 10//13 19//13 9//13
f 1//14 14//14 25//14
f 1//14 25//14 13//14
f 3//15 15//15 33//15
f 3//15 33//15 14//15
f 4//16 16//16 41//16
f 4//16 41//16 15//16
f 6//17 17//17 49//17
f 6//17 49//17 16//17
f 7//18 18//18 57//18
f 7//18 57//18 17//18
f 9//19 19//19 65//19
f 9//19 65//19 18//19
f 10//20 20//20 73//20
f 10//20 73//20 19//20
f 12//21 13//21 81//21
f 12//21 81//21 20//21
f 13//22 21//22 84//22
f 13//22 84//22 83//22
f 13//22 83//22 82//22
f 13//22 82//22 81//22
f 13//23 25//23 24//23
f 13//23 24//23 23//23
f 13//23 23//23 22//23
f 13//23 22//23 21//23
f 14//24 29//24 28//24
f 14//24 28//24 27//24
f 14//24 27//24 26//24
f 14//24 26//24 25//24
f 14//25 33//25 32//25
f 14//25 32//25 31//25
f 14//25 31//25 30//25
f 14//25 30//25 29//25
f 15//26 37//26 36//26
f 15//26 36//26 35//26
f 15//26 35//26 34//26
f 15//26 34//26 33//26
f 15//27 41//27 40//27
f 15//27 40//27 39//27
f 15//27 39//27 38//27
f 15//27 38//27 37//27
f 16//28 45//28 44//28
f 16//28 44//28 43//28
f 16//28 43//28 42//28
f 16//28 42//28 41//28
f 16//29 49//29 48//29
f 16//29 48//29 47//29
f 16//29 47//29 46//29
f 16//29 46//29 45//29
f 17//30 53//30 52//30
f 17//30 52//30 51//30
f 17//30 51//30 50//30
f 17//30 50//30 49//30
f 17//31 57//31 56//31
f 17//31 56//31 55//31
f 17//31 55//31 54//31
f 17//31 54//31 53//31
f 18//32 61//32 60//32
f 18//32 60//32 59//32
f 18//32 59//32 58//32
f 18//32 58//32 57//32
f 18//33 65//33 64//33
f 18//33 64//33 63//33
f 18//33 63//33 62//33
f 18//33 62//33 61//33
f 19//34 69//34 68//34
f 19//34 68//34 67//34
f 19//34 67//34 66//34
f 19//34 66//34 65//34
f 19//35 73//35 72//35
f 19//35 72//35 71//35
f 19//35 71//35 70//35
f 19//35 70//35 69//35
f 20//36 77//36 76//36
f 20//36 76//36 75//36
f 20//36 75//36 74//36
f 20//36 74//36 73//36
f 20//37 81//37 80//37
f 20//37 80//37 79//37
f 20//37 79//37 78//37
f 20//37 78//37 77//37
f 21//38 22//38 86//38
f 21//38 86//38 85//38
f 22//39 23//39 87//39
f 22//39 87//39 86//39
f 23//40 24//40 88//40
f 23//40 88//40 87//40
f 24//41 25//41 89//41
f 24//41 89//41 88//41
f 25//42 26//42 90//42
f 25//42 90//42 89//42
f 26//43 27//43 91//43
f 26//43 91//43 90//43
f 27//44 28//44 92//44
f 27//44 92//44 91//44
f 28//45 29//45 93//45
f 28//45 93//45 92//45
f 29//46 30//46 94//46
f 29//46 94//46 93//46
f 30//47 31//47 95//47
f 30//47 95//47 94//47
f 31//48 32//48 96//48
f 31//48 96//48 95//48
f 32//49 33//49 97//49
f 32//49 97//49 96//49
f 33//50 34//50 98//50
f 33//50 98//50 97//50
f 34//51 35//51 99//51
f 34//51 99//51 98//51
f 35//52 36//52 100//52
f 35//52 100//52 99//52
f 36//53 37//53 101//53
f 36//53 101//53 100//53
f 37//54 38//54 102//54
f 37//54 102//54 101//54
f 38//55 39//55 103//55
f 38//55 103//55 102//55
f 39//56 40//56 104//56
f 39//56 104//56 103//56
f 40//57 41//57 105//57
f 40//57 105//57 104//57
f 41//58 42//58 106//58
f 41//58 106//58 105//58
f 42//59 43//59 107//59
f 42//59 107//59 106//59
f 43//60 44//60 108//60
f 43//60 108//60 107//60
f 44//61 45//61 109//61
f 44//61 109//61 108//61
f 45//62 46//62 110//62
f 45//62 110//62 109//62
f 46//63 47//63 111//63
f 46//63 111//63 110//63
f 47//64 48//64 112//64
f 47//64 112//64 111//64
f 48//65 49//65 113//65
f 48//65 113//65 112//65
f 49//66 50//66 114//66
f 49//66 114//66 113//66
f 50//67 51//67 115//67
f 50//67 115//67 114//67
f 51//68 52//68 116//68
f 51//68 116//68 115//68
f 52//69 53//69 117//69
f 52//69 117//69 116//69
f 53//70 54//70 118//70
f 53//70 118//70 117//70
f 54//71 55//71 119//71
f 54//71 119//71 118//71
f 55//72 56//72 120//72
f 55//72 120//72 119//72
f 56//73 57//73 121//73
f 56//73 121//73 120//73
f 57//74 58//74 122//74
f 57//74 122//74 121//74
f 58//75 59//75 123//75
f 58//75 123//75 122//75
f 59//76 60//76 124//76
f 59//76 124//76 123//76
f 60//77 61//77 125//77
f 60//77 125//77 124//77
f 61//78 62//78 126//78
f 61//78 126//78 125//78
f 62//79 63//79 127//79
f 62//79 127//79 126//79
f 63//80 64//80 128//80
f 63//80 128//80 127//80
f 64//81 65//81 129//81
f 64//81 129//81 128//81
f 65//82 66//82 130//82
f 65//82 130//82 129//82
f 66//83 67//83 131//83
f 66//83 131//83 130//83
f 67//84 68//84 132//84
f 67//84 132//84 131//84
f 68//85 69//85 133//85
f 68//85 133//85 132//85
f 69//86 70//86 134//86
f 69//86 134//86 133//86
f 70//87 71//87 135//87
f 70//87 135//87 134//87
f 71//88 72//88 136//88
f 71//88 136//88 135//88
f 72//89 73//89 137//89
f 72//89 137//89 136//89
f 73//90 74//90 138//90
f 73//90 138//90 137//90
f 74//91 75//91 139//91
f 74//91 139//91 138//91
f 75//92 76//92 140//92
f 75//92 140//92 139//92
f 76//93 77//93 141//93
f 76//93 141//93 140//93
f 77//94 78//94 142//94
f 77//94 142//94 141//94
f 78//95 79//95 143//95
f 78//95 143//95 142//95
f 79//96 80//96 144//96
f 79//96 144//96 143//96
f 80//97 81//97 145//97
f 80//97 145//97 144//97
f 81//98 82//98 146//98
f 81//98 146//98 145//98
f 82//99 83//99 147//99
f 82//99 147//99 146//99
f 83//100 84//100 148//100
f 83//100 148//100 147//100
f 84//101 21//101 85//101
f 84//101 85//101 148//101
f 149//102 85//102 86//102
f 149//102 86//102 87//102
f 149//102 87//102 88//102
f 149//102 88//102 89//102
f 149//102 89//102 150//102
f 150//103 89//103 90//103
f 150//103 90//103 91//103
f 150//103 91//103 92//103
f 150//103 92//103 93//103
f 150//103 93//103 151//103
f 151//104 93//104 94//104
f 151//104 94//104 95//104
f 151//104 95//104 96//104
f 151//104 96//104 97//104
f 151//104 97//104 152//104
f 152//105 97//105 98//105
f 152//105 98//105 99//105
f 152//105 99//105 100//105
f 152//105 100//105 101//105
f 152//105 101//105 153//105
f 153//106 101//106 102//106
f 153//106 102//106 103//106
f 153//106 103//106 104//106
f 153//106 104//106 105//106
f 153//106 105//106 154//106
f 154//107 105//107 106//107
f 154//107 106//107 107//107
f 154//107 107//107 108//107
f 154//107 108//107 109//107
f 154//107 109//107 155//107
f 155//108 109//108 110//108
f 155//108 110//108 111//108
f 155//108 111//108 112//108
f 155//108 112//108 113//108
f 155//108 113//108 156//108
f 156//109 113//109 114//109
f 156//109 114//109 115//109
f 156//109 115//109 116//109
f 156//109 116//109 117//109
f 156//109 117//109 157//109
f 157//110 117//110 118//110
f 157//110 118//110 119//110
f 157//110 119//110 120//110
f 157//110 120//110 121//110
f 157//110 121//110 158//110
f 158//111 121//111 122//111
f 158//111 122//111 123//111
f 158//111 123//111 124//111
f 158//111 124//111 125//111
f 158//111 125//111 159//111
f 159//112 125//112 126//112
f 159//112 126//112 127//112
f 159//112 127//112 128//112
f 159//112 128//112 129//112
f 159//112 129//112 160//112
f 160//113 129//113 130//113
f 160//113 130//113 131//113
f 160//113 131//113 132//113
f 160//113 132//113 133//113
f 160//113 133//113 161//113
f 161//114 133//114 134//114
f 161//114 134//114 135//114
f 161//114 135//114 136//114
f 161//114 136//114 137//114
f 161//114 137//114 162//114
f 162//115 137//115 138//115
f 162//115 138//115 139//115
f 162//115 139//115 140//115
f 162//115 140//115 141//115
f 162//115 141//115 163//115
f 163//116 141//116 142//116
f 163//116 142//116 143//116
f 163//116 143//116 144//116
f 163//116 144//116 145//116
f 163//116 145//116 164//116
f 164//117 145//117 146//117
f 164//117 146//117 147//117
f 164//117 147//117 148//117
f 164//117 148//117 85//117
f 164//117 85//117 149//117
f 165//118 164//118 149//118
f 165//119 149//119 150//119
f 166//120 150//120 151//120
f 166//121 151//121 152//121
f 167//122 152//122 153//122
f 167//123 153//123 154//123
f 168//124 154//124 155//124
f 168//125 155//125 156//125
f 169//126 156//126 157//126
f 169//127 157//127 158//127
f 170//128 158//128 159//128
f 170//129 159//129 160//129
f 171//130 160//130 161//130
f 171//131 161//131 162//131
f 172//132 162//132 163//132
f 172//133 163//133 164//133
f 173//134 165//134 150//134
f 173//134 150//134 166//134
f 173//135 166//135 152//135
f 173//135 152//135 167//135
f 173//136 167//136 154//136
f 173//136 154//136 168//136
f 173//137 168//137 156//137
f 173//137 156//137 169//137
f 173//138 169//138 158//138
f 173//138 158//138 170//138
f 173//139 170//139 160//139
f 173//139 160//139 171//139
f 173//140 171//140 162//140
f 173//140 162//140 172//140
f 173//141 172//141 164//141
f 173//141 164//141 165//141
