# 3ds Max Wavefront OBJ Exporter v0.97b - (c)2007 guruware
# File Created: 12.05.2015 20:23:29

mtllib Diamond_Emerald_Cut.mtl

#
# object Diamond_Emerald_Cut
#

v  0.0000 -1.9614 1.4544
v  0.4367 -1.4073 1.9081
v  -0.4367 -1.4073 1.9081
v  0.0000 -1.9614 -1.4544
v  0.6308 -1.4073 -1.7140
v  0.6308 -1.4073 1.7140
v  -0.4367 -1.4073 -1.9081
v  0.4367 -1.4073 -1.9081
v  -0.6308 -1.4073 1.7140
v  -0.6308 -1.4073 -1.7140
v  -2.5000 1.1427 2.4833
v  -2.5000 1.1145 2.4833
v  -1.7308 1.1145 3.2525
v  -1.7308 1.1427 3.2525
v  -1.5275 1.6951 2.7617
v  1.7308 1.1427 3.2525
v  1.5275 1.6951 2.7617
v  2.0092 1.6951 2.2800
v  2.5000 1.1427 2.4833
v  2.5000 1.1427 -2.4833
v  2.0092 1.6951 -2.2800
v  1.5275 1.6951 -2.7617
v  1.7308 1.1427 -3.2525
v  -1.7308 1.1427 -3.2525
v  -1.5275 1.6951 -2.7617
v  -2.0092 1.6951 -2.2800
v  -2.5000 1.1427 -2.4833
v  -2.0092 1.6951 2.2800
v  1.3829 1.9169 2.4127
v  1.2829 1.9614 2.1712
v  -1.2829 1.9614 2.1712
v  -1.3829 1.9169 2.4127
v  1.6602 1.9169 -2.1354
v  1.4187 1.9614 -2.0354
v  1.4187 1.9614 2.0354
v  1.6602 1.9169 2.1354
v  -1.3829 1.9169 -2.4127
v  -1.2829 1.9614 -2.1712
v  1.2829 1.9614 -2.1712
v  1.3829 1.9169 -2.4127
v  -1.6602 1.9169 2.1354
v  -1.4187 1.9614 2.0354
v  -1.4187 1.9614 -2.0354
v  -1.6602 1.9169 -2.1354
v  1.7308 1.1145 3.2525
v  2.5000 1.1145 2.4833
v  2.5000 1.1145 -2.4833
v  1.7308 1.1145 -3.2525
v  -1.7308 1.1145 -3.2525
v  -2.5000 1.1145 -2.4833
v  -1.6187 -0.2993 2.2530
v  -1.1207 -0.2993 2.7510
v  1.1207 -0.2993 2.7510
v  1.6187 -0.2993 2.2530
v  1.6187 -0.2993 -2.2530
v  1.1207 -0.2993 -2.7510
v  -1.1207 -0.2993 -2.7510
v  -1.6187 -0.2993 -2.2530
v  0.0000 1.9614 0.0000
# 59 vertices

vn 0.0000 -0.6335 0.7737
vn 0.6600 -0.7513 -0.0000
vn 0.0000 -0.6335 -0.7737
vn -0.6600 -0.7513 -0.0000
vn 0.4672 -0.7507 0.4672
vn -0.7071 0.0000 0.7071
vn 0.4672 -0.7507 -0.4672
vn -0.4672 -0.7507 -0.4672
vn 0.0000 0.6642 0.7476
vn 0.7476 0.6642 -0.0000
vn 0.0000 0.6642 -0.7476
vn -0.7476 0.6642 -0.0000
vn -0.5286 0.6642 0.5286
vn 0.5286 0.6642 0.5286
vn -0.5286 0.6642 -0.5286
vn 0.5286 0.6642 -0.5286
vn 0.0000 0.9834 0.1814
vn 0.1814 0.9834 -0.0000
vn 0.0000 0.9834 -0.1814
vn -0.1814 0.9834 -0.0000
vn -0.3792 0.8440 0.3792
vn 0.3792 0.8440 0.3792
vn -0.3792 0.8440 -0.3792
vn 0.3792 0.8440 -0.3792
vn 0.0000 0.8440 0.5363
vn 0.5363 0.8440 -0.0000
vn 0.0000 0.8440 -0.5363
vn -0.5363 0.8440 -0.0000
vn -0.1283 0.9834 0.1283
vn 0.1283 0.9834 0.1283
vn -0.1283 0.9834 -0.1283
vn 0.1283 0.9834 -0.1283
vn 0.0000 0.0000 1.0000
vn 1.0000 0.0000 -0.0000
vn 0.0000 0.0000 -1.0000
vn -1.0000 0.0000 -0.0000
vn 0.7071 0.0000 0.7071
vn -0.6180 -0.4859 0.6180
vn 0.7071 0.0000 -0.7071
vn -0.7071 0.0000 -0.7071
vn 0.0000 -0.3343 0.9425
vn 0.8486 -0.5290 -0.0000
vn 0.0000 -0.3343 -0.9425
vn -0.8486 -0.5290 -0.0000
vn 0.6180 -0.4859 0.6180
vn 0.6180 -0.4859 -0.6180
vn -0.6180 -0.4859 -0.6180
vn -0.5064 -0.6979 0.5064
vn 0.0000 -0.6054 0.7959
vn 0.7464 -0.6655 -0.0000
vn 0.0000 -0.6054 -0.7959
vn -0.7464 -0.6655 -0.0000
vn 0.5064 -0.6979 0.5064
vn 0.5064 -0.6979 -0.5064
vn -0.5064 -0.6979 -0.5064
vn -0.4672 -0.7507 0.4672
vn 0.0000 1.0000 -0.0000
# 57 vertex normals

vt 0.5000 0.0000 0.0000
vt 0.5865 0.1969 0.0000
vt 0.4135 0.1969 0.0000
vt 0.8975 0.0000 0.0000
vt 0.8975 0.1969 0.0000
vt 0.0057 0.1969 0.0000
vt -0.0266 -0.0000 0.0000
vt 0.4356 -0.0000 0.0000
vt 0.5382 0.1969 0.0000
vt 0.3652 0.1969 0.0000
vt 1.0266 0.0000 0.0000
vt 0.9943 0.1969 0.0000
vt -0.0589 0.1969 0.0000
vt 0.8975 0.8173 0.0000
vt 0.8975 0.7878 0.0000
vt 1.1557 0.7878 0.0000
vt 1.1557 0.8173 0.0000
vt 0.3008 0.1969 0.0000
vt 0.2069 0.9084 0.0000
vt 0.1538 0.8173 0.0000
vt 0.8462 0.8173 0.0000
vt 0.7931 0.9084 0.0000
vt 0.1378 0.7130 0.0000
vt 0.1025 0.8173 0.0000
vt 0.8622 0.7130 0.0000
vt 0.1007 -0.1014 0.0000
vt 0.1953 0.0633 0.0000
vt 0.1165 0.1158 0.0000
vt -0.0531 0.0011 0.0000
vt 1.0531 0.0011 0.0000
vt 0.8835 0.1158 0.0000
vt 0.8047 0.0633 0.0000
vt 0.8993 -0.1014 0.0000
vt -0.0531 0.9989 0.0000
vt 0.1165 0.8842 0.0000
vt 0.1953 0.9367 0.0000
vt 0.1007 1.1014 0.0000
vt 0.8993 1.1014 0.0000
vt 0.8047 0.9367 0.0000
vt 0.8835 0.8842 0.0000
vt 1.0531 0.9989 0.0000
vt 0.7806 0.1037 0.0000
vt 0.7566 0.1441 0.0000
vt 0.2434 0.1441 0.0000
vt 0.2194 0.1037 0.0000
vt 0.8336 0.8610 0.0000
vt 0.7837 0.8378 0.0000
vt 0.7837 0.1622 0.0000
vt 0.8336 0.1390 0.0000
vt 0.2194 0.8963 0.0000
vt 0.2434 0.8559 0.0000
vt 0.7566 0.8559 0.0000
vt 0.7806 0.8963 0.0000
vt 0.1664 0.1390 0.0000
vt 0.2163 0.1622 0.0000
vt 0.2163 0.8378 0.0000
vt 0.1664 0.8610 0.0000
vt 0.1538 0.7878 0.0000
vt 0.8462 0.7878 0.0000
vt 0.1025 0.7878 0.0000
vt -0.1557 0.8173 0.0000
vt -0.1557 0.7878 0.0000
vt 0.9621 0.3939 0.0000
vt 1.0912 0.3939 0.0000
vt -0.1037 0.8173 0.0000
vt -0.1037 0.7878 0.0000
vt 0.3269 0.3939 0.0000
vt 0.6731 0.3939 0.0000
vt 0.0379 0.3939 0.0000
vt 0.8975 0.3939 0.0000
vt 0.2947 0.3939 0.0000
vt 0.6409 0.3939 0.0000
vt -0.0912 0.3939 0.0000
vt 0.1659 0.3939 0.0000
vt 1.0589 0.1969 0.0000
vt 0.5000 0.5000 0.0000
# 76 texture coords

g Diamond_Emerald_Cut
usemtl wire_061135006
s off
f 1/1/1 2/2/1 3/3/1 
f 4/4/2 5/5/2 6/6/2 1/7/2 
f 4/8/3 7/9/3 8/10/3 
f 1/11/4 9/12/4 10/6/4 4/7/4 
f 1/7/5 6/6/5 2/13/5 
f 11/14/6 12/15/6 13/16/6 14/17/6 
f 4/8/7 8/10/7 5/18/7 
f 4/7/8 10/6/8 7/13/8 
f 15/19/9 14/20/9 16/21/9 17/22/9 
f 18/23/10 19/24/10 20/14/10 21/25/10 
f 22/19/11 23/20/11 24/21/11 25/22/11 
f 26/23/12 27/24/12 11/14/12 28/25/12 
f 14/26/13 15/27/13 28/28/13 11/29/13 
f 19/30/14 18/31/14 17/32/14 16/33/14 
f 27/34/15 26/35/15 25/36/15 24/37/15 
f 23/38/16 22/39/16 21/40/16 20/41/16 
f 29/42/17 30/43/17 31/44/17 32/45/17 
f 33/46/18 34/47/18 35/48/18 36/49/18 
f 37/50/19 38/51/19 39/52/19 40/53/19 
f 41/54/20 42/55/20 43/56/20 44/57/20 
f 41/54/21 28/28/21 15/27/21 32/45/21 
f 29/42/22 17/32/22 18/31/22 36/49/22 
f 37/50/23 25/36/23 26/35/23 44/57/23 
f 33/46/24 21/40/24 22/39/24 40/53/24 
f 17/32/25 29/42/25 32/45/25 15/27/25 
f 21/40/26 33/46/26 36/49/26 18/31/26 
f 25/36/27 37/50/27 40/53/27 22/39/27 
f 28/28/28 41/54/28 44/57/28 26/35/28 
f 42/55/29 41/54/29 32/45/29 31/44/29 
f 30/43/30 29/42/30 36/49/30 35/48/30 
f 38/51/31 37/50/31 44/57/31 43/56/31 
f 34/47/32 33/46/32 40/53/32 39/52/32 
f 16/21/33 14/20/33 13/58/33 45/59/33 
f 20/14/34 19/24/34 46/60/34 47/15/34 
f 24/21/35 23/20/35 48/58/35 49/59/35 
f 11/14/36 27/24/36 50/60/36 12/15/36 
f 19/24/37 16/61/37 45/62/37 46/60/37 
f 12/15/38 51/63/38 52/64/38 13/16/38 
f 23/20/39 20/65/39 47/66/39 48/58/39 
f 27/24/40 24/61/40 49/62/40 50/60/40 
f 13/58/41 52/67/41 53/68/41 45/59/41 
f 47/15/42 46/60/42 54/69/42 55/70/42 
f 48/58/43 56/71/43 57/72/43 49/59/43 
f 12/15/44 50/60/44 58/69/44 51/63/44 
f 46/60/45 45/62/45 53/73/45 54/69/45 
f 48/58/46 47/66/46 55/74/46 56/71/46 
f 50/60/47 49/62/47 57/73/47 58/69/47 
f 51/63/48 9/12/48 3/75/48 52/64/48 
f 52/67/49 3/3/49 2/2/49 53/68/49 
f 55/70/50 54/69/50 6/6/50 5/5/50 
f 56/71/51 8/10/51 7/9/51 57/72/51 
f 51/63/52 58/69/52 10/6/52 9/12/52 
f 54/69/53 53/73/53 2/13/53 6/6/53 
f 56/71/54 55/74/54 5/18/54 8/10/54 
f 58/69/55 57/73/55 7/13/55 10/6/55 
f 9/12/56 1/11/56 3/75/56 
f 31/44/57 30/43/57 59/76/57 
f 30/43/57 35/48/57 59/76/57 
f 35/48/57 34/47/57 59/76/57 
f 34/47/57 39/52/57 59/76/57 
f 39/52/57 38/51/57 59/76/57 
f 38/51/57 43/56/57 59/76/57 
f 43/56/57 42/55/57 59/76/57 
f 42/55/57 31/44/57 59/76/57 
# 50 polygons - 14 triangles

