# Blender v2.76 (sub 0) OBJ File: ''
# www.blender.org
mtllib untitled.mtl
o Main_Diamond
v 2.128700 1.680666 2.128647
v -2.128700 1.680666 -2.128653
v -2.128700 1.680666 2.128647
v 2.128700 1.680666 -2.128653
v 3.395500 -0.726134 6.732446
v -3.395500 -0.366634 6.732446
v -3.395500 -0.726134 6.732446
v 3.395500 -0.366634 6.732446
v 6.732500 -0.726133 -3.395554
v 6.732500 -0.366633 3.395546
v 6.732500 -0.726134 3.395546
v 6.732500 -0.366632 -3.395554
v -3.395500 -0.726132 -6.732454
v 3.395500 -0.366631 -6.732454
v 3.395500 -0.726132 -6.732454
v -3.395500 -0.366631 -6.732454
v -6.732500 -0.726134 3.395546
v -6.732500 -0.366632 -3.395554
v -6.732500 -0.726133 -3.395554
v -6.732500 -0.366633 3.395546
v -3.753900 0.984765 5.230346
v 3.753900 0.984765 5.230346
v 5.230400 0.984765 3.753847
v 5.230400 0.984767 -3.753853
v 3.753900 0.984767 -5.230354
v -3.753900 0.984767 -5.230354
v -5.230400 0.984767 -3.753853
v -5.230400 0.984765 3.753847
v -6.496100 -0.726134 6.496046
v -0.000000 -7.932433 0.000045
v -6.496100 -0.726132 -6.496054
v 6.496100 -0.726132 -6.496054
v 6.496100 -0.726134 6.496046
v -0.000000 1.611267 3.275247
v 3.275200 1.611267 0.000047
v -0.000000 1.611268 -3.275253
v -3.275200 1.611267 0.000047
v -6.496100 -0.366634 6.496046
v 6.496100 -0.366634 6.496046
v 6.496100 -0.366631 -6.496054
v -6.496100 -0.366631 -6.496054
vt 0.862700 0.364300
vt 0.325900 0.901100
vt 0.325900 0.364300
vt 0.862700 0.901100
vt 0.752200 0.000000
vt 0.247800 1.000000
vt 0.247800 0.000000
vt 0.627200 1.000000
vt 0.319000 0.500000
vt 0.863800 0.341900
vt 0.659500 0.659500
vt 0.953000 0.910700
vt 0.500000 1.000000
vt 0.384200 1.000000
vt 0.159500 0.840500
vt 0.294900 0.431200
vt 1.000000 0.000000
vt 0.500000 0.500000
vt 0.537400 0.329100
vt 0.842300 0.695100
vt 0.476300 1.000000
vt 0.171400 0.634000
vt -0.432700 0.996200
vt -0.141100 0.500000
vt -0.057600 0.343600
vt 0.067300 0.996200
vt 0.358900 0.500000
vt 0.442400 0.343600
vt 0.067300 1.496200
vt 0.358900 1.000000
vt 0.442400 0.843600
vt -0.432700 1.496200
vt -0.141100 1.000000
vt -0.057600 0.843600
vt 1.000000 1.000000
vt 0.000000 1.000000
vt -0.835200 0.330000
vt -0.233700 0.043200
vt -0.020200 0.405400
vt -0.335200 0.330000
vt 0.266300 0.043200
vt 0.479800 0.405400
vt -0.335200 0.830000
vt 0.266300 0.543200
vt 0.479800 0.905400
vt -0.835200 0.830000
vt -0.233700 0.543200
vt -0.020200 0.905400
vt -0.174900 0.698900
vt 0.044500 0.148000
vt 0.645100 0.196200
vt -0.115100 0.730300
vt -0.311100 -0.173300
vt 0.194100 0.385500
vt 0.400200 0.858400
vt 0.619700 0.307400
vt 1.220200 0.355700
vt 0.384900 0.730300
vt 0.188900 -0.173300
vt 0.694100 0.385500
vt 0.240800 1.433600
vt 0.460200 0.882600
vt 1.060800 0.930900
vt 0.384900 1.230300
vt 0.188900 0.326700
vt 0.694100 0.885500
vt -0.334400 1.274100
vt -0.115000 0.723100
vt 0.485600 0.771400
vt -0.115100 1.230300
vt -0.311100 0.326700
vt 0.194100 0.885500
vt 0.207400 0.502200
vt 0.999100 -0.258100
vt 1.223200 0.265400
vt 0.574700 0.869600
vt 1.366400 0.109200
vt 1.590600 0.632700
vt 0.207400 1.236900
vt 0.999100 0.476500
vt 1.223200 1.000000
vt -0.159900 0.869600
vt 0.631800 0.109200
vt 0.855900 0.632700
vt 0.000000 0.000000
vn 0.000000 1.000000 0.000000
vn 0.000000 0.000000 1.000000
vn 1.000000 0.000000 0.000000
vn 0.000000 0.000000 -1.000000
vn -1.000000 0.000000 0.000000
vn 0.000000 0.743400 0.668800
vn 0.668800 0.743400 0.000000
vn 0.000000 0.743400 -0.668800
vn -0.668800 0.743400 0.000000
vn -0.716700 -0.695300 0.054600
vn -0.054600 -0.695300 -0.716700
vn 0.716700 -0.695300 -0.054600
vn 0.054600 -0.695300 0.716700
vn 0.000000 0.952300 0.305200
vn 0.305100 0.952300 0.000000
vn 0.000000 0.952300 -0.305200
vn -0.305100 0.952300 0.000000
vn -0.304400 0.902600 0.304400
vn 0.304400 0.902600 0.304400
vn 0.304400 0.902600 -0.304400
vn -0.304400 0.902600 -0.304400
vn 0.051400 0.736300 0.674700
vn -0.051400 0.736300 0.674700
vn 0.674700 0.736300 -0.051400
vn 0.674700 0.736300 0.051400
vn -0.051400 0.736300 -0.674700
vn 0.051400 0.736300 -0.674700
vn -0.674700 0.736300 0.051400
vn -0.674700 0.736300 -0.051400
vn -0.144100 0.979000 0.144100
vn 0.144100 0.979000 0.144100
vn 0.144100 0.979000 -0.144100
vn -0.144100 0.979000 -0.144100
vn -0.067500 0.980500 0.184600
vn -0.184600 0.980500 0.067500
vn 0.184600 0.980500 0.067500
vn 0.067500 0.980500 0.184600
vn 0.067500 0.980500 -0.184600
vn 0.184600 0.980500 -0.067500
vn -0.184600 0.980500 -0.067500
vn -0.067500 0.980500 -0.184600
vn 0.000000 0.998200 0.060400
vn 0.060400 0.998200 0.000000
vn 0.000000 0.998200 -0.060400
vn -0.060400 0.998200 0.000000
vn 0.076000 0.000000 0.997100
vn -0.076000 0.000000 0.997100
vn 0.997100 0.000000 -0.076000
vn 0.997100 0.000000 0.076000
vn -0.076000 0.000000 -0.997100
vn 0.076000 0.000000 -0.997100
vn -0.997100 0.000000 0.076000
vn -0.997100 0.000000 -0.076000
vn -0.730700 -0.682700 -0.000000
vn -0.716700 -0.695300 -0.054600
vn -0.054600 -0.695300 0.716700
vn 0.000000 -0.682700 0.730700
vn 0.716700 -0.695300 0.054600
vn 0.730700 -0.682700 -0.000000
vn 0.054600 -0.695300 -0.716700
vn 0.000000 -0.682700 -0.730700
usemtl wire_000000000
s 1
f 1/1/1 2/2/1 3/3/1
f 1/1/1 4/4/1 2/2/1
f 5/5/2 6/6/2 7/7/2
f 5/5/2 8/8/2 6/6/2
f 9/5/3 10/6/3 11/7/3
f 9/5/3 12/8/3 10/6/3
f 13/5/4 14/6/4 15/7/4
f 13/5/4 16/8/4 14/6/4
f 17/5/5 18/6/5 19/7/5
f 17/5/5 20/8/5 18/6/5
f 8/8/6 21/9/6 6/6/6
f 8/8/6 22/10/6 21/9/6
f 12/8/7 23/11/7 10/6/7
f 12/8/7 24/12/7 23/11/7
f 16/8/8 25/13/8 14/6/8
f 16/8/8 26/14/8 25/13/8
f 20/8/9 27/15/9 18/6/9
f 20/8/9 28/16/9 27/15/9
f 29/17/10 17/5/10 30/18/10
f 31/17/11 13/5/11 30/18/11
f 32/17/12 9/5/12 30/18/12
f 33/17/13 5/5/13 30/18/13
f 22/10/14 34/19/14 21/9/14
f 24/12/15 35/20/15 23/11/15
f 26/14/16 36/21/16 25/13/16
f 28/16/17 37/22/17 27/15/17
f 38/23/18 21/24/18 28/25/18
f 39/26/19 23/27/19 22/28/19
f 40/29/20 25/30/20 24/31/20
f 41/32/21 27/33/21 26/34/21
f 8/8/22 39/35/22 22/10/22
f 21/9/23 38/36/23 6/6/23
f 12/8/24 40/35/24 24/12/24
f 23/11/25 39/36/25 10/6/25
f 16/8/26 41/35/26 26/14/26
f 25/13/27 40/36/27 14/6/27
f 20/8/28 38/35/28 28/16/28
f 27/15/29 41/36/29 18/6/29
f 21/37/30 3/38/30 28/39/30
f 23/40/31 1/41/31 22/42/31
f 25/43/32 4/44/32 24/45/32
f 27/46/33 2/47/33 26/48/33
f 21/49/34 34/50/34 3/51/34
f 28/52/35 3/53/35 37/54/35
f 23/55/36 35/56/36 1/57/36
f 22/58/37 1/59/37 34/60/37
f 25/61/38 36/62/38 4/63/38
f 24/64/39 4/65/39 35/66/39
f 27/67/40 37/68/40 2/69/40
f 26/70/41 2/71/41 36/72/41
f 34/73/42 1/74/42 3/75/42
f 35/76/43 4/77/43 1/78/43
f 36/79/44 2/80/44 4/81/44
f 37/82/45 3/83/45 2/84/45
f 5/5/46 39/35/46 8/8/46
f 5/5/46 33/17/46 39/35/46
f 6/6/47 29/85/47 7/7/47
f 6/6/47 38/36/47 29/85/47
f 9/5/48 40/35/48 12/8/48
f 9/5/48 32/17/48 40/35/48
f 10/6/49 33/85/49 11/7/49
f 10/6/49 39/36/49 33/85/49
f 13/5/50 41/35/50 16/8/50
f 13/5/50 31/17/50 41/35/50
f 14/6/51 32/85/51 15/7/51
f 14/6/51 40/36/51 32/85/51
f 17/5/52 38/35/52 20/8/52
f 17/5/52 29/17/52 38/35/52
f 18/6/53 31/85/53 19/7/53
f 18/6/53 41/36/53 31/85/53
f 17/5/54 19/7/54 30/18/54
f 19/7/55 31/85/55 30/18/55
f 7/7/56 29/85/56 30/18/56
f 5/5/57 7/7/57 30/18/57
f 11/7/58 33/85/58 30/18/58
f 9/5/59 11/7/59 30/18/59
f 15/7/60 32/85/60 30/18/60
f 13/5/61 15/7/61 30/18/61
